<svg xmlns="http://www.w3.org/2000/svg"  viewBox="0 0 50 50" width="100px" height="100px" baseProfile="basic"><path fill="#16d6fa" d="M18.5,45C11.607,45,6,39.393,6,32.5S11.607,20,18.5,20v4c-4.687,0-8.5,3.813-8.5,8.5 s3.813,8.5,8.5,8.5s8.5-3.813,8.5-8.5V5h4v27.5C31,39.393,25.393,45,18.5,45z"/><path fill="#16d6fa" d="M41,19c-6.113,0-14-6.789-14-14h4c0,4.732,5.961,10,10,10V19z"/><path fill="#ff64bd" d="M23.5,47C16.607,47,11,41.393,11,34.5S16.607,22,23.5,22v4c-4.687,0-8.5,3.813-8.5,8.5 s3.813,8.5,8.5,8.5s8.5-3.813,8.5-8.5V7h4v27.5C36,41.393,30.393,47,23.5,47z"/><path fill="#ff64bd" d="M46,21c-6.113,0-14-6.789-14-14h4c0,4.732,5.961,10,10,10V21z"/><path fill="#742bc9" d="M20.5,47C13.607,47,8,41.393,8,34.5S13.607,22,20.5,22v4c-4.687,0-8.5,3.813-8.5,8.5 s3.813,8.5,8.5,8.5s8.5-3.813,8.5-8.5V7h4v27.5C33,41.393,27.393,47,20.5,47z"/><path fill="#742bc9" d="M43,21c-6.113,0-14-6.789-14-14h4c0,4.732,5.961,10,10,10V21z"/></svg>